<svg version="1.1" viewBox="0 0 96 96" xmlns="http://www.w3.org/2000/svg" xmlns:xlink="http://www.w3.org/1999/xlink" id="Icons_PiggyBank" overflow="hidden"><path d=" M 83 49 C 82.5 49 82.1 48.7 81.8 48.4 C 81.3 47.9 81 47 81 46.1 C 81 44.8 81.9 43.8 82.7 43.2 L 82.8 43.1 C 84.7 44.1 85 45.1 85 46 C 85 47.6 84.1 49 83 49 Z M 55.8 29.3 C 55.5 30 54.7 30.5 54 30.5 C 53.7 30.5 53.4 30.4 53.2 30.3 C 50 28.8 46.5 28 43.2 28 C 41.3 28 39.4 28.3 37.5 28.8 C 36.4 29.1 35.3 28.5 35 27.4 C 34.7 26.3 35.3 25.2 36.4 24.9 C 38.6 24.3 40.9 24 43.1 24 C 46.9 24 51 24.9 54.7 26.6 C 55.8 27.1 56.3 28.3 55.8 29.3 Z M 90.3 37 C 87.8 36.6 84.7 37.3 82.2 38.7 C 79.9 38.2 76.4 38.2 73.2 39.3 C 68.5 28.1 55.4 20 43 20 C 38.7 20 34.4 21 30.5 22.8 L 18.2 17 C 17.4 16.6 16.5 17.4 16.8 18.2 L 20.8 29.5 C 18.4 32 16.4 34.9 15 38.1 C 14.8 38.7 14.3 39.1 13.6 39.3 L 10 40.2 C 8.2 40.6 7 42.2 7 44.1 L 7 51.9 C 7 53.7 8.2 55.3 10 55.8 L 13.7 56.7 C 14.3 56.9 14.8 57.3 15.1 57.9 C 16.8 61.8 19.4 65.3 22.6 68.2 C 22.9 68.5 23.2 68.9 23.3 69.4 L 24.8 78.5 C 25 79.5 25.8 80.2 26.8 80.2 L 33.4 80.2 C 34.4 80.2 35.2 79.5 35.4 78.5 L 35.9 75.3 C 38.2 75.9 40.6 76.2 43.1 76.2 C 45.8 76.2 48.6 75.8 51.2 75.1 L 51.8 78.5 C 52 79.5 52.8 80.2 53.8 80.2 L 60.4 80.2 C 61.4 80.2 62.2 79.5 62.4 78.5 L 63.9 69.4 C 64 68.9 64.2 68.5 64.6 68.2 C 70.7 62.9 75 55.9 75 48 C 75 46.3 74.8 44.7 74.4 43.1 C 75.6 42.7 76.9 42.4 78.1 42.4 C 77.4 43.5 77 44.7 77 46 C 76.9 48 77.7 49.9 79 51.3 C 80.1 52.4 81.5 53.1 83 53.1 C 86.3 53.1 89 50 89 46.1 C 89 44.2 88.3 42.5 86.9 41.2 C 87.9 41 88.8 40.9 89.7 41 C 90.8 41.2 91.8 40.4 92 39.3 C 92.1 38.2 91.4 37.2 90.3 37 Z"/></svg>