<svg version="1.1" viewBox="0 0 96 96" xmlns="http://www.w3.org/2000/svg" xmlns:xlink="http://www.w3.org/1999/xlink" id="Icons_Tablet" overflow="hidden"><path d=" M 82 70 L 14 70 L 14 26 L 82 26 L 82 70 Z M 53 74 L 43 74 C 42.4 74 42 73.6 42 73 C 42 72.4 42.4 72 43 72 L 53 72 C 53.6 72 54 72.4 54 73 C 54 73.6 53.6 74 53 74 Z M 48 22 C 48.6 22 49 22.4 49 23 C 49 23.6 48.6 24 48 24 C 47.4 24 47 23.6 47 23 C 47 22.4 47.4 22 48 22 Z M 84 20 L 12 20 C 9.8 20 8 21.8 8 24 L 8 72 C 8 74.2 9.8 76 12 76 L 84 76 C 86.2 76 88 74.2 88 72 L 88 24 C 88 21.8 86.2 20 84 20 Z"/></svg>